<mxfile host="app.diagrams.net" modified="2024-04-14T14:51:52.496Z" agent="Mozilla/5.0 (Windows NT 10.0; Win64; x64) AppleWebKit/537.36 (KHTML, like Gecko) Chrome/121.0.0.0 Safari/537.36" version="24.1.0" etag="04y_5eAEIPIjghZ-Czi3" type="github">
  <diagram name="PÃ¡gina-1" id="cjzvWrO4aXk_0jEegwZU">
    <mxGraphModel>
      <root>
        <mxCell id="0" />
        <mxCell id="1" parent="0" />
      </root>
    </mxGraphModel>
  </diagram>
</mxfile>
